# This file uses centimeters as units for non-parametric coordinates.

mtllib Bigger Table.mtl
g default
v -7.010907 2.610068 7.010907
v 7.010907 2.610068 7.010907
v -7.010907 3.271131 7.010907
v 7.010907 3.271131 7.010907
v -7.010907 3.271131 -7.010907
v 7.010907 3.271131 -7.010907
v -7.010907 2.610068 -7.010907
v 7.010907 2.610068 -7.010907
v -5.531485 2.184345 5.531485
v 5.531485 2.184345 5.531485
v -5.531485 2.705912 5.531485
v 5.531485 2.705912 5.531485
v -5.531485 2.705912 -5.531485
v 5.531485 2.705912 -5.531485
v -5.531485 2.184345 -5.531485
v 5.531485 2.184345 -5.531485
v 4.668525 -0.356392 2.221621
v 5.328640 -0.356392 2.221621
v 4.668525 0.356392 2.221621
v 5.328640 0.356392 2.221621
v 4.668525 0.356392 -2.132689
v 5.328640 0.356392 -2.132689
v 4.668525 -0.356392 -2.132689
v 5.328640 -0.356392 -2.132689
v 4.668525 -0.356392 4.465581
v 5.328640 -0.356392 4.465581
v 5.328640 0.356392 4.465581
v 4.668525 0.356392 4.465581
v 4.668525 0.356392 -4.376649
v 5.328640 0.356392 -4.376649
v 5.328640 -0.356392 -4.376649
v 4.668525 -0.356392 -4.376649
v 5.328640 0.356392 -3.782312
v 4.668525 0.356392 -3.782312
v 4.668525 -0.356392 -3.782312
v 5.328640 -0.356392 -3.782312
v 5.328640 0.356392 4.051145
v 5.328640 -0.356392 4.051145
v 4.668525 -0.356392 4.051145
v 4.668525 0.356392 4.051145
v 5.328640 2.466160 -3.782312
v 4.668525 2.466160 -3.782312
v 5.328640 2.466160 -4.376649
v 4.668525 2.466160 -4.376649
v 4.668525 2.466160 4.051145
v 5.328640 2.466160 4.051145
v 4.668525 2.466160 4.465581
v 5.328640 2.466160 4.465581
v -5.115618 -0.356392 2.221621
v -4.455503 -0.356392 2.221621
v -5.115618 0.356392 2.221621
v -4.455503 0.356392 2.221621
v -5.115618 0.356392 -2.132689
v -4.455503 0.356392 -2.132689
v -5.115618 -0.356392 -2.132689
v -4.455503 -0.356392 -2.132689
v -5.115618 -0.356392 4.465581
v -4.455503 -0.356392 4.465581
v -4.455503 0.356392 4.465581
v -5.115618 0.356392 4.465581
v -5.115618 0.356392 -4.376649
v -4.455503 0.356392 -4.376649
v -4.455503 -0.356392 -4.376649
v -5.115618 -0.356392 -4.376649
v -4.455503 0.356392 -3.782312
v -5.115618 0.356392 -3.782312
v -5.115618 -0.356392 -3.782312
v -4.455503 -0.356392 -3.782312
v -4.455503 0.356392 4.051145
v -4.455503 -0.356392 4.051145
v -5.115618 -0.356392 4.051145
v -5.115618 0.356392 4.051145
v -4.455503 2.466160 -3.782312
v -5.115618 2.466160 -3.782312
v -4.455503 2.466160 -4.376649
v -5.115618 2.466160 -4.376649
v -5.115618 2.466160 4.051145
v -4.455503 2.466160 4.051145
v -5.115618 2.466160 4.465581
v -4.455503 2.466160 4.465581
vt 0.469017 0.038896
vt 0.469017 0.449651
vt 0.449651 0.449651
vt 0.449651 0.038896
vt 0.019531 0.449651
vt 0.019531 0.038896
vt 0.038896 0.038896
vt 0.038896 0.449651
vt 0.820824 0.705842
vt 0.820824 0.381764
vt 0.836103 0.381764
vt 0.836103 0.705842
vt 0.496189 0.343610
vt 0.496189 0.019531
vt 0.511468 0.019531
vt 0.511468 0.343610
vt 0.874235 0.264503
vt 0.874235 0.136948
vt 0.895116 0.136948
vt 0.895116 0.264503
vt 0.874235 0.088624
vt 0.895116 0.088624
vt 0.895116 0.318097
vt 0.874235 0.318097
vt 0.874235 0.071213
vt 0.895116 0.071213
vt 0.895116 0.330237
vt 0.874235 0.330238
vt 0.956919 0.071213
vt 0.956919 0.088624
vt 0.956919 0.318097
vt 0.956919 0.330238
vt 0.887259 0.908177
vt 0.887259 0.780622
vt 0.908139 0.780622
vt 0.908139 0.908177
vt 0.887259 0.727028
vt 0.908139 0.727028
vt 0.908139 0.956501
vt 0.887259 0.956501
vt 0.887259 0.714887
vt 0.908139 0.714887
vt 0.908139 0.973912
vt 0.887259 0.973912
vt 0.969943 0.714887
vt 0.969943 0.727028
vt 0.969943 0.956501
vt 0.969943 0.973912
vt 0.778381 0.852116
vt 0.650853 0.854733
vt 0.650425 0.833857
vt 0.777953 0.831240
vt 0.602539 0.855725
vt 0.602111 0.834849
vt 0.831536 0.830140
vt 0.831964 0.851016
vt 0.585132 0.856082
vt 0.584704 0.835206
vt 0.843674 0.829891
vt 0.844102 0.850767
vt 0.583436 0.773416
vt 0.600843 0.773059
vt 0.830267 0.768347
vt 0.842405 0.768100
vt 0.651250 0.874067
vt 0.778778 0.871449
vt 0.779207 0.892325
vt 0.651679 0.894943
vt 0.832361 0.870349
vt 0.832789 0.891225
vt 0.603365 0.895934
vt 0.602936 0.875058
vt 0.844499 0.870100
vt 0.844927 0.890976
vt 0.585958 0.896292
vt 0.585529 0.875416
vt 0.846196 0.952766
vt 0.834058 0.953016
vt 0.604633 0.957725
vt 0.587226 0.958082
vt 0.019531 0.491892
vt 0.430286 0.491892
vt 0.430286 0.902647
vt 0.019531 0.902647
vt 0.835547 0.019531
vt 0.835547 0.343610
vt 0.496746 0.381764
vt 0.496746 0.705842
vt 0.927477 0.780622
vt 0.927477 0.908177
vt 0.908139 0.727028
vt 0.927477 0.727028
vt 0.927477 0.956501
vt 0.908139 0.956501
vt 0.854898 0.136948
vt 0.854898 0.264503
vt 0.854898 0.088624
vt 0.874235 0.088624
vt 0.874235 0.318097
vt 0.854898 0.318097
vt 0.854898 0.071213
vt 0.874235 0.071213
vt 0.874235 0.330238
vt 0.854898 0.330238
vt 0.974336 0.051882
vt 0.974328 0.071220
vt 0.956923 0.051875
vt 0.969946 0.746366
vt 0.982082 0.727024
vt 0.982088 0.746362
vt 0.777556 0.811906
vt 0.650028 0.814524
vt 0.831139 0.810807
vt 0.831536 0.830140
vt 0.602111 0.834849
vt 0.601714 0.815516
vt 0.602936 0.875058
vt 0.602539 0.855725
vt 0.831964 0.851016
vt 0.832361 0.870349
vt 0.585529 0.875416
vt 0.585132 0.856082
vt 0.844102 0.850767
vt 0.844499 0.870100
vt 0.563745 0.756406
vt 0.583078 0.756009
vt 0.564102 0.773813
vt 0.810934 0.768749
vt 0.810679 0.756613
vt 0.830012 0.756207
vt 0.038896 0.019531
vt 0.449651 0.019531
vt 0.019531 0.472526
vt 0.430286 0.472526
vt 0.820824 0.721121
vt 0.496746 0.721121
vt 0.835547 0.358889
vt 0.511468 0.358889
vt 0.874235 0.349574
vt 0.874235 0.330237
vt 0.895115 0.349575
vt 0.956919 0.349575
vt 0.895116 0.051875
vt 0.874235 0.071213
vt 0.874235 0.051875
vt 0.895116 0.107961
vt 0.956919 0.107961
vt 0.908139 0.746366
vt 0.844498 0.870100
vt 0.863831 0.869703
vt 0.864260 0.890579
vt 0.865530 0.952369
vt 0.565371 0.835603
vt 0.585132 0.856082
vt 0.565799 0.856479
vt 0.621444 0.834452
vt 0.620176 0.772662
vt 0.812203 0.830537
vn 0.000000 0.000000 1.000000
vn 0.000000 0.000000 1.000000
vn 0.000000 0.000000 1.000000
vn 0.000000 0.000000 1.000000
vn 0.000000 1.000000 0.000000
vn 0.000000 1.000000 0.000000
vn 0.000000 1.000000 0.000000
vn 0.000000 1.000000 0.000000
vn 0.000000 0.000000 -1.000000
vn 0.000000 0.000000 -1.000000
vn 0.000000 0.000000 -1.000000
vn 0.000000 0.000000 -1.000000
vn 0.000000 -1.000000 0.000000
vn 0.000000 -1.000000 0.000000
vn 0.000000 -1.000000 0.000000
vn 0.000000 -1.000000 0.000000
vn 1.000000 0.000000 0.000000
vn 1.000000 0.000000 0.000000
vn 1.000000 0.000000 0.000000
vn 1.000000 0.000000 0.000000
vn -1.000000 0.000000 0.000000
vn -1.000000 0.000000 0.000000
vn -1.000000 0.000000 0.000000
vn -1.000000 0.000000 0.000000
vn 0.000000 0.000000 1.000000
vn 0.000000 0.000000 1.000000
vn 0.000000 0.000000 1.000000
vn 0.000000 0.000000 1.000000
vn 0.000000 1.000000 0.000000
vn 0.000000 1.000000 0.000000
vn 0.000000 1.000000 0.000000
vn 0.000000 1.000000 0.000000
vn 0.000000 0.000000 -1.000000
vn 0.000000 0.000000 -1.000000
vn 0.000000 0.000000 -1.000000
vn 0.000000 0.000000 -1.000000
vn 0.000000 -1.000000 0.000000
vn 0.000000 -1.000000 0.000000
vn 0.000000 -1.000000 0.000000
vn 0.000000 -1.000000 0.000000
vn 1.000000 0.000000 0.000000
vn 1.000000 0.000000 0.000000
vn 1.000000 0.000000 0.000000
vn 1.000000 0.000000 0.000000
vn -1.000000 0.000000 0.000000
vn -1.000000 0.000000 0.000000
vn -1.000000 0.000000 0.000000
vn -1.000000 0.000000 0.000000
vn 0.000000 0.000000 1.000000
vn 0.000000 0.000000 1.000000
vn 0.000000 0.000000 1.000000
vn 0.000000 0.000000 1.000000
vn 0.000000 1.000000 0.000000
vn 0.000000 1.000000 0.000000
vn 0.000000 1.000000 0.000000
vn 0.000000 1.000000 0.000000
vn 0.000000 0.000000 -1.000000
vn 0.000000 0.000000 -1.000000
vn 0.000000 0.000000 -1.000000
vn 0.000000 0.000000 -1.000000
vn 0.000000 -1.000000 0.000000
vn 0.000000 -1.000000 0.000000
vn 0.000000 -1.000000 0.000000
vn 0.000000 -1.000000 0.000000
vn 1.000000 0.000000 0.000000
vn 1.000000 0.000000 0.000000
vn 1.000000 0.000000 0.000000
vn 1.000000 0.000000 0.000000
vn -1.000000 0.000000 0.000000
vn -1.000000 0.000000 0.000000
vn -1.000000 0.000000 0.000000
vn -1.000000 0.000000 0.000000
vn 0.000000 -1.000000 0.000000
vn 0.000000 -1.000000 0.000000
vn 0.000000 -1.000000 0.000000
vn 0.000000 -1.000000 0.000000
vn 1.000000 0.000000 0.000000
vn 1.000000 0.000000 0.000000
vn 1.000000 0.000000 0.000000
vn 1.000000 0.000000 0.000000
vn 0.000000 1.000000 0.000000
vn 0.000000 1.000000 0.000000
vn 0.000000 1.000000 0.000000
vn 0.000000 1.000000 0.000000
vn -1.000000 0.000000 0.000000
vn -1.000000 0.000000 0.000000
vn -1.000000 0.000000 0.000000
vn -1.000000 0.000000 0.000000
vn 0.000000 1.000000 0.000000
vn 0.000000 1.000000 0.000000
vn 0.000000 1.000000 0.000000
vn 0.000000 1.000000 0.000000
vn 1.000000 0.000000 0.000000
vn 1.000000 0.000000 0.000000
vn 1.000000 0.000000 0.000000
vn 1.000000 0.000000 0.000000
vn 0.000000 -1.000000 0.000000
vn 0.000000 -1.000000 0.000000
vn 0.000000 -1.000000 0.000000
vn 0.000000 -1.000000 0.000000
vn -1.000000 0.000000 0.000000
vn -1.000000 0.000000 0.000000
vn -1.000000 0.000000 0.000000
vn -1.000000 0.000000 0.000000
vn 0.000000 1.000000 0.000000
vn 0.000000 1.000000 0.000000
vn 0.000000 1.000000 0.000000
vn 0.000000 1.000000 0.000000
vn -1.000000 0.000000 0.000000
vn -1.000000 0.000000 0.000000
vn 0.000000 -1.000000 0.000000
vn 0.000000 -1.000000 0.000000
vn 1.000000 0.000000 0.000000
vn 1.000000 0.000000 0.000000
vn 1.000000 0.000000 0.000000
vn 1.000000 0.000000 0.000000
vn 0.000000 -1.000000 0.000000
vn 0.000000 -1.000000 0.000000
vn -1.000000 0.000000 0.000000
vn -1.000000 0.000000 0.000000
vn 0.000000 1.000000 0.000000
vn 0.000000 1.000000 0.000000
vn 0.000000 1.000000 0.000000
vn 0.000000 1.000000 0.000000
vn 0.000000 0.000000 1.000000
vn 0.000000 0.000000 1.000000
vn 0.000000 0.000000 1.000000
vn 0.000000 0.000000 1.000000
vn 1.000000 0.000000 0.000000
vn 1.000000 0.000000 0.000000
vn 1.000000 0.000000 0.000000
vn 1.000000 0.000000 0.000000
vn 0.000000 0.000000 -1.000000
vn 0.000000 0.000000 -1.000000
vn 0.000000 0.000000 -1.000000
vn 0.000000 0.000000 -1.000000
vn -1.000000 0.000000 0.000000
vn -1.000000 0.000000 0.000000
vn -1.000000 0.000000 0.000000
vn -1.000000 0.000000 0.000000
vn 0.000000 0.000000 -1.000000
vn 0.000000 0.000000 -1.000000
vn 0.000000 0.000000 -1.000000
vn 0.000000 0.000000 -1.000000
vn -1.000000 0.000000 0.000000
vn -1.000000 0.000000 0.000000
vn -1.000000 0.000000 0.000000
vn -1.000000 0.000000 0.000000
vn 0.000000 0.000000 1.000000
vn 0.000000 0.000000 1.000000
vn 0.000000 0.000000 1.000000
vn 0.000000 0.000000 1.000000
vn 1.000000 0.000000 0.000000
vn 1.000000 0.000000 0.000000
vn 1.000000 0.000000 0.000000
vn 1.000000 0.000000 0.000000
vn 0.000000 0.000000 1.000000
vn 0.000000 0.000000 1.000000
vn 0.000000 0.000000 1.000000
vn 0.000000 0.000000 1.000000
vn 0.000000 1.000000 0.000000
vn 0.000000 1.000000 0.000000
vn 0.000000 1.000000 0.000000
vn 0.000000 1.000000 0.000000
vn 0.000000 0.000000 -1.000000
vn 0.000000 0.000000 -1.000000
vn 0.000000 0.000000 -1.000000
vn 0.000000 0.000000 -1.000000
vn 0.000000 -1.000000 0.000000
vn 0.000000 -1.000000 0.000000
vn 0.000000 -1.000000 0.000000
vn 0.000000 -1.000000 0.000000
vn 1.000000 0.000000 0.000000
vn 1.000000 0.000000 0.000000
vn 1.000000 0.000000 0.000000
vn 1.000000 0.000000 0.000000
vn -1.000000 0.000000 0.000000
vn -1.000000 0.000000 0.000000
vn -1.000000 0.000000 0.000000
vn -1.000000 0.000000 0.000000
vn 0.000000 -1.000000 0.000000
vn 0.000000 -1.000000 0.000000
vn 0.000000 -1.000000 0.000000
vn 0.000000 -1.000000 0.000000
vn 1.000000 0.000000 0.000000
vn 1.000000 0.000000 0.000000
vn 1.000000 0.000000 0.000000
vn 1.000000 0.000000 0.000000
vn 0.000000 1.000000 0.000000
vn 0.000000 1.000000 0.000000
vn 0.000000 1.000000 0.000000
vn 0.000000 1.000000 0.000000
vn -1.000000 0.000000 0.000000
vn -1.000000 0.000000 0.000000
vn -1.000000 0.000000 0.000000
vn -1.000000 0.000000 0.000000
vn 0.000000 1.000000 0.000000
vn 0.000000 1.000000 0.000000
vn 0.000000 1.000000 0.000000
vn 0.000000 1.000000 0.000000
vn 1.000000 0.000000 0.000000
vn 1.000000 0.000000 0.000000
vn 1.000000 0.000000 0.000000
vn 1.000000 0.000000 0.000000
vn 0.000000 -1.000000 0.000000
vn 0.000000 -1.000000 0.000000
vn 0.000000 -1.000000 0.000000
vn 0.000000 -1.000000 0.000000
vn -1.000000 0.000000 0.000000
vn -1.000000 0.000000 0.000000
vn -1.000000 0.000000 0.000000
vn -1.000000 0.000000 0.000000
vn 0.000000 1.000000 0.000000
vn 0.000000 1.000000 0.000000
vn 0.000000 1.000000 0.000000
vn 0.000000 1.000000 0.000000
vn -1.000000 0.000000 0.000000
vn -1.000000 0.000000 0.000000
vn 0.000000 -1.000000 0.000000
vn 0.000000 -1.000000 0.000000
vn 1.000000 0.000000 0.000000
vn 1.000000 0.000000 0.000000
vn 1.000000 0.000000 0.000000
vn 1.000000 0.000000 0.000000
vn 0.000000 -1.000000 0.000000
vn 0.000000 -1.000000 0.000000
vn -1.000000 0.000000 0.000000
vn -1.000000 0.000000 0.000000
vn 0.000000 1.000000 0.000000
vn 0.000000 1.000000 0.000000
vn 0.000000 1.000000 0.000000
vn 0.000000 1.000000 0.000000
vn 0.000000 0.000000 1.000000
vn 0.000000 0.000000 1.000000
vn 0.000000 0.000000 1.000000
vn 0.000000 0.000000 1.000000
vn 1.000000 0.000000 0.000000
vn 1.000000 0.000000 0.000000
vn 1.000000 0.000000 0.000000
vn 1.000000 0.000000 0.000000
vn 0.000000 0.000000 -1.000000
vn 0.000000 0.000000 -1.000000
vn 0.000000 0.000000 -1.000000
vn 0.000000 0.000000 -1.000000
vn -1.000000 0.000000 0.000000
vn -1.000000 0.000000 0.000000
vn -1.000000 0.000000 0.000000
vn -1.000000 0.000000 0.000000
vn 0.000000 0.000000 -1.000000
vn 0.000000 0.000000 -1.000000
vn 0.000000 0.000000 -1.000000
vn 0.000000 0.000000 -1.000000
vn -1.000000 0.000000 0.000000
vn -1.000000 0.000000 0.000000
vn -1.000000 0.000000 0.000000
vn -1.000000 0.000000 0.000000
vn 0.000000 0.000000 1.000000
vn 0.000000 0.000000 1.000000
vn 0.000000 0.000000 1.000000
vn 0.000000 0.000000 1.000000
vn 1.000000 0.000000 0.000000
vn 1.000000 0.000000 0.000000
vn 1.000000 0.000000 0.000000
vn 1.000000 0.000000 0.000000
s off
g Table
usemtl initialShadingGroup
f 1/131/1 2/132/2 4/4/3 3/7/4
f 3/7/5 4/4/6 6/3/7 5/8/8
f 5/133/9 6/134/10 8/82/11 7/81/12
f 7/81/13 8/82/14 2/83/15 1/84/16
f 2/1/17 8/2/18 6/3/19 4/4/20
f 7/5/21 1/6/22 3/7/23 5/8/24
f 9/88/25 10/9/26 12/135/27 11/136/28
f 11/15/29 12/85/30 14/86/31 13/16/32
f 13/16/33 14/86/34 16/137/35 15/138/36
f 15/87/37 16/10/38 10/9/39 9/88/40
f 10/9/41 16/10/42 14/11/43 12/12/44
f 15/13/45 9/14/46 11/15/47 13/16/48
f 25/139/49 26/140/50 27/27/51 28/141/52
f 19/35/53 20/89/54 22/90/55 21/36/56
f 29/143/57 30/26/58 31/144/59 32/145/60
f 23/95/61 24/18/62 18/17/63 17/96/64
f 18/17/65 24/18/66 22/19/67 20/20/68
f 23/33/69 17/34/70 19/35/71 21/36/72
s 1
f 17/96/73 18/17/74 38/99/75 39/100/76
s 2
f 18/17/77 20/20/78 37/23/79 38/24/80
s off
f 20/89/81 19/35/82 40/91/83 37/92/84
s 3
f 19/35/85 17/34/86 39/37/87 40/38/88
s off
f 21/36/89 22/90/90 33/93/91 34/94/92
s 4
f 22/19/93 24/18/94 36/21/95 33/22/96
s 5
f 24/18/97 23/95/98 35/97/99 36/98/100
s 6
f 23/33/101 21/36/102 34/39/103 35/40/104
s off
f 42/105/105 41/106/106 43/29/107 44/107/108
s 6
f 35/40/104 34/39/103 29/43/109 32/44/110
s 5
f 36/98/100 35/97/99 32/101/111 31/102/112
s 4
f 33/22/96 36/21/95 31/25/113 30/26/114
s 2
f 38/24/80 37/23/79 27/27/115 26/28/116
s 1
f 39/100/76 38/99/75 26/103/117 25/104/118
s 3
f 40/38/88 39/37/87 25/41/119 28/42/120
s off
f 46/108/121 45/46/122 47/109/123 48/110/124
f 34/146/125 33/22/126 41/30/127 42/147/128
f 33/22/129 30/26/130 43/29/131 41/30/132
f 30/26/133 29/143/134 44/107/135 43/29/136
f 29/43/137 34/39/138 42/47/139 44/48/140
f 37/148/141 40/38/142 45/46/143 46/108/144
f 40/38/145 28/42/146 47/45/147 45/46/148
f 28/141/149 27/27/150 48/32/151 47/142/152
f 27/27/153 37/23/154 46/31/155 48/32/156
f 57/149/157 58/150/158 59/151/159 60/74/160
f 51/111/161 52/52/162 54/51/163 53/112/164
f 61/153/165 62/58/166 63/154/167 64/155/168
f 55/65/169 56/50/170 50/49/171 49/66/172
f 50/49/173 56/50/174 54/51/175 52/52/176
f 55/65/177 49/66/178 51/67/179 53/68/180
s 7
f 49/66/181 50/49/182 70/119/183 71/120/184
s 8
f 50/49/185 52/52/186 69/55/187 70/56/188
s off
f 52/52/189 51/111/190 72/113/191 69/114/192
s 9
f 51/67/193 49/66/194 71/69/195 72/70/196
s off
f 53/112/197 54/51/198 65/115/199 66/116/200
s 10
f 54/51/201 56/50/202 68/53/203 65/54/204
s 11
f 56/50/205 55/65/206 67/117/207 68/118/208
s 12
f 55/65/209 53/68/210 66/71/211 67/72/212
s off
f 74/125/213 73/126/214 75/61/215 76/127/216
s 12
f 67/72/212 66/71/211 61/75/217 64/76/218
s 11
f 68/118/208 67/117/207 64/121/219 63/122/220
s 10
f 65/54/204 68/53/203 63/57/221 62/58/222
s 8
f 70/56/188 69/55/187 59/59/223 58/60/224
s 7
f 71/120/184 70/119/183 58/123/225 57/124/226
s 9
f 72/70/196 71/69/195 57/73/227 60/74/228
s off
f 78/63/229 77/128/230 79/129/231 80/130/232
f 66/156/233 65/54/234 73/62/235 74/157/236
f 65/54/237 62/58/238 75/61/239 73/62/240
f 62/58/241 61/153/242 76/127/243 75/61/244
f 61/75/245 66/71/246 74/79/247 76/80/248
f 69/55/249 72/158/250 77/128/251 78/63/252
f 72/70/253 60/74/254 79/77/255 77/78/256
f 60/74/257 59/151/258 80/152/259 79/77/260
f 59/59/261 69/55/262 78/63/263 80/64/264
